# xmcd
#
# Track frame offsets: 
#        150
#        14578
#        28648
#        44310
#        57592
#        73579
#        85362
#        108205
#        124106
#        140422
#        155579
#        171539
#        187562
#        206305
#        220279
#
# Disc length: 3183 seconds
#
# Revision: 0
# Processed by: cddbd v1.5.1PL0 Copyright (c) Steve Scherf et al.
# Submitted via: ExactAudioCopy v0.90b2
#
DISCID=d40c6d0f
DTITLE=The Mavericks - 'O What A Thrill' An Introduction To The Maveri
DTITLE=cks
DYEAR=1900
DGENRE=Country
TTITLE0=Oh What A Thrill
TTITLE1=I Don't Care (If You Love Me Anymore) Single Version
TTITLE2=Missing You
TTITLE3=Something Stupid
TTITLE4=All That Heaven Will Allow
TTITLE5=Hey Good Lookin'
TTITLE6=Children
TTITLE7=The Things You Said To Me
TTITLE8=Pretend
TTITLE9=Mr. Jones
TTITLE10=End Of The Line
TTITLE11=Foolish Heart
TTITLE12=All I Get
TTITLE13=I Don't Even Know Your Name
TTITLE14=Blue Moon
EXTD=
EXTT0=
EXTT1=
EXTT2=
EXTT3=
EXTT4=
EXTT5=
EXTT6=
EXTT7=
EXTT8=
EXTT9=
EXTT10=
EXTT11=
EXTT12=
EXTT13=
EXTT14=
PLAYORDER=
